<svg width="19" height="19" viewBox="0 0 19 19" fill="none" xmlns="http://www.w3.org/2000/svg">
<g clip-path="url(#clip0_1_53)">
<path d="M17.4167 9.50004C17.4167 5.12767 13.8724 1.58337 9.49999 1.58337C5.12762 1.58337 1.58333 5.12767 1.58333 9.50004C1.58333 13.8724 5.12762 17.4167 9.49999 17.4167" stroke="black" stroke-width="1.1875" stroke-linecap="round" stroke-linejoin="round"/>
<path d="M10.3124 1.62268C10.3124 1.62268 12.6934 4.75765 12.6934 9.51963M8.72504 17.4166C8.72504 17.4166 6.34405 14.2816 6.34405 9.51963C6.34405 4.75765 8.72504 1.62268 8.72504 1.62268M2.08208 12.2975H9.5187M2.08208 6.74181H16.9553" stroke="black" stroke-width="1.1905" stroke-linecap="round" stroke-linejoin="round"/>
<path d="M17.3209 14.1843C17.712 14.4249 17.6874 15.01 17.2853 15.0559L15.253 15.2863L14.3418 17.1166C14.1613 17.48 13.6032 17.3018 13.5106 16.8522L12.517 12.0103C12.4387 11.6303 12.7807 11.3913 13.1108 11.5947L17.3209 14.1843Z" stroke="black" stroke-width="1.1875"/>
</g>
<defs>
<clipPath id="clip0_1_53">
<rect width="19" height="19" fill="white"/>
</clipPath>
</defs>
</svg>
