<svg width="22" height="22" viewBox="0 0 22 22" fill="none" xmlns="http://www.w3.org/2000/svg">
<path d="M16.6568 5.34748C15.925 4.61316 15.0564 4.02925 14.1002 3.62873C13.1194 3.21666 12.066 3.00553 11.0021 3.00783H10.9656C8.82363 3.01642 6.81914 3.85432 5.31953 5.36896C3.81777 6.88361 2.99922 8.89455 3.00781 11.0365C3.01426 12.3321 3.33652 13.619 3.94238 14.7555L4.03906 14.936V17.961H7.06406L7.24453 18.0576C8.38105 18.6635 9.66797 18.9858 10.9635 18.9922H11C13.127 18.9922 15.125 18.1715 16.6311 16.6805C18.1436 15.1809 18.9836 13.1764 18.9965 11.0365C19.0008 9.94943 18.7924 8.8967 18.3756 7.90412C17.9748 6.94804 17.3909 6.07953 16.6568 5.34748ZM6.70312 12.0313C6.43326 12.0258 6.17632 11.9147 5.98741 11.7219C5.79851 11.5291 5.69271 11.2699 5.69271 11C5.69271 10.7301 5.79851 10.4709 5.98741 10.2781C6.17632 10.0853 6.43326 9.97428 6.70312 9.96877C6.97298 9.97428 7.22993 10.0853 7.41883 10.2781C7.60773 10.4709 7.71354 10.7301 7.71354 11C7.71354 11.2699 7.60773 11.5291 7.41883 11.7219C7.22993 11.9147 6.97298 12.0258 6.70312 12.0313ZM11 12.0313C10.7301 12.0258 10.4732 11.9147 10.2843 11.7219C10.0954 11.5291 9.98958 11.2699 9.98958 11C9.98958 10.7301 10.0954 10.4709 10.2843 10.2781C10.4732 10.0853 10.7301 9.97428 11 9.96877C11.2699 9.97428 11.5268 10.0853 11.7157 10.2781C11.9046 10.4709 12.0104 10.7301 12.0104 11C12.0104 11.2699 11.9046 11.5291 11.7157 11.7219C11.5268 11.9147 11.2699 12.0258 11 12.0313ZM15.2969 12.0313C15.027 12.0258 14.7701 11.9147 14.5812 11.7219C14.3923 11.5291 14.2865 11.2699 14.2865 11C14.2865 10.7301 14.3923 10.4709 14.5812 10.2781C14.7701 10.0853 15.027 9.97428 15.2969 9.96877C15.5667 9.97428 15.8237 10.0853 16.0126 10.2781C16.2015 10.4709 16.3073 10.7301 16.3073 11C16.3073 11.2699 16.2015 11.5291 16.0126 11.7219C15.8237 11.9147 15.5667 12.0258 15.2969 12.0313Z" fill="white" fill-opacity="0.15"/>
<path d="M14.2656 11C14.2656 11.2735 14.3743 11.5358 14.5677 11.7292C14.7611 11.9226 15.0234 12.0312 15.2969 12.0312C15.5704 12.0312 15.8327 11.9226 16.0261 11.7292C16.2195 11.5358 16.3281 11.2735 16.3281 11C16.3281 10.7265 16.2195 10.4642 16.0261 10.2708C15.8327 10.0774 15.5704 9.96875 15.2969 9.96875C15.0234 9.96875 14.7611 10.0774 14.5677 10.2708C14.3743 10.4642 14.2656 10.7265 14.2656 11ZM5.67188 11C5.67188 11.2735 5.78052 11.5358 5.97392 11.7292C6.16732 11.9226 6.42962 12.0312 6.70312 12.0312C6.97663 12.0312 7.23893 11.9226 7.43233 11.7292C7.62573 11.5358 7.73438 11.2735 7.73438 11C7.73438 10.7265 7.62573 10.4642 7.43233 10.2708C7.23893 10.0774 6.97663 9.96875 6.70312 9.96875C6.42962 9.96875 6.16732 10.0774 5.97392 10.2708C5.78052 10.4642 5.67188 10.7265 5.67188 11Z" fill="white"/>
<path d="M19.8773 7.27031C19.3918 6.1166 18.6957 5.08105 17.8084 4.1916C16.9273 3.30732 15.8813 2.60441 14.7297 2.12266C13.548 1.62637 12.2934 1.375 11 1.375H10.957C9.65508 1.38145 8.39394 1.63926 7.20801 2.14629C6.06625 2.63298 5.03008 3.33714 4.15723 4.21953C3.27852 5.10684 2.58887 6.13809 2.11191 7.2875C1.61777 8.47773 1.36855 9.74316 1.375 11.0451C1.38229 12.5371 1.73528 14.0072 2.40625 15.3398V18.6055C2.40625 18.8676 2.51037 19.1189 2.69571 19.3043C2.88105 19.4896 3.13242 19.5938 3.39453 19.5938H6.6623C7.99497 20.2647 9.465 20.6177 10.957 20.625H11.0021C12.2891 20.625 13.5373 20.3758 14.7125 19.8881C15.8583 19.4121 16.9004 18.7174 17.7805 17.8428C18.6678 16.9641 19.366 15.9371 19.8537 14.792C20.3607 13.6061 20.6186 12.3449 20.625 11.043C20.6314 9.73457 20.3779 8.46484 19.8773 7.27031ZM16.6311 16.6805C15.125 18.1715 13.127 18.9922 11 18.9922H10.9635C9.66797 18.9857 8.38105 18.6635 7.24453 18.0576L7.06406 17.9609H4.03906V14.9359L3.94238 14.7555C3.33652 13.6189 3.01426 12.332 3.00781 11.0365C2.99922 8.89453 3.81777 6.88359 5.31953 5.36895C6.81914 3.8543 8.82363 3.01641 10.9656 3.00781H11.0021C12.0764 3.00781 13.1184 3.21621 14.1002 3.62871C15.0584 4.03047 15.9178 4.6084 16.6568 5.34746C17.3937 6.08437 17.9738 6.9459 18.3756 7.9041C18.7924 8.89668 19.0008 9.94941 18.9965 11.0365C18.9836 13.1764 18.1436 15.1809 16.6311 16.6805Z" fill="white"/>
<path d="M9.96875 11C9.96875 11.2735 10.0774 11.5358 10.2708 11.7292C10.4642 11.9226 10.7265 12.0312 11 12.0312C11.2735 12.0312 11.5358 11.9226 11.7292 11.7292C11.9226 11.5358 12.0312 11.2735 12.0312 11C12.0312 10.7265 11.9226 10.4642 11.7292 10.2708C11.5358 10.0774 11.2735 9.96875 11 9.96875C10.7265 9.96875 10.4642 10.0774 10.2708 10.2708C10.0774 10.4642 9.96875 10.7265 9.96875 11Z" fill="white"/>
</svg>
